<?xml version="1.0" standalone="no"?>
<!DOCTYPE svg PUBLIC "-//W3C//DTD SVG 20010904//EN"
 "http://www.w3.org/TR/2001/REC-SVG-20010904/DTD/svg10.dtd">
<svg version="1.0" xmlns="http://www.w3.org/2000/svg"
 width="512.000000pt" height="512.000000pt" viewBox="0 0 512.000000 512.000000"
 preserveAspectRatio="xMidYMid meet">
<metadata>
Created by potrace 1.11, written by Peter Selinger 2001-2013
</metadata>
<g transform="translate(0.000000,512.000000) scale(0.100000,-0.100000)"
fill="#000000" stroke="none">
<path d="M1807 5105 c-54 -8 -123 -19 -155 -26 -31 -7 -62 -13 -67 -15 -160
-31 -398 -129 -593 -243 -153 -89 -375 -278 -497 -421 -266 -312 -439 -715
-483 -1120 -4 -36 -7 -371 -7 -745 0 -741 0 -745 62 -990 120 -481 437 -927
853 -1199 218 -144 492 -259 715 -302 22 -4 47 -9 55 -10 8 -2 38 -7 65 -10
28 -4 73 -10 100 -14 72 -12 1334 -10 1430 2 176 21 366 68 520 129 594 232
1044 719 1228 1329 14 47 28 96 31 110 2 14 10 50 16 80 35 169 38 248 36 945
-3 759 -3 750 -71 1001 -94 346 -272 651 -530 909 -305 305 -673 496 -1111
577 -114 21 -146 22 -809 24 -532 2 -712 -1 -788 -11z"/>
</g>
</svg>
